<?xml version="1.0" standalone="no"?>
<!DOCTYPE svg PUBLIC "-//W3C//DTD SVG 20010904//EN"
        "http://www.w3.org/TR/2001/REC-SVG-20010904/DTD/svg10.dtd">
<svg version="1.0" xmlns="http://www.w3.org/2000/svg"
     width="247.000000pt" height="85.000000pt" viewBox="0 0 247.000000 85.000000"
     preserveAspectRatio="xMidYMid meet">

    <g transform="translate(0.000000,85.000000) scale(0.100000,-0.100000)" fill="#FFFFFF" stroke="none">
        <path d="M640 450 l0 -140 25 0 25 0 0 140 0 140 -25 0 -25 0 0 -140z"/>
        <path d="M1359 570 c-76 -23 -104 -65 -97 -146 5 -60 25 -89 75 -110 65 -28
153 -9 153 31 0 23 -1 23 -38 8 -59 -23 -118 -4 -138 44 -32 75 15 138 96 131
25 -3 53 -8 63 -12 13 -6 17 -3 17 13 0 11 -8 24 -17 29 -28 15 -86 21 -114
12z"/>
        <path d="M1960 525 c0 -52 -1 -55 -19 -45 -39 20 -91 12 -123 -20 -27 -27 -30
-36 -25 -72 3 -22 14 -50 25 -61 22 -22 106 -35 116 -19 4 6 21 8 41 5 l35 -6
0 137 0 136 -25 0 c-24 0 -25 -3 -25 -55z m-10 -94 c23 -44 -2 -91 -48 -91
-52 0 -81 59 -46 94 22 23 81 21 94 -3z"/>
        <path d="M170 440 l0 -130 85 0 c72 0 88 3 105 20 24 24 26 72 5 94 -12 12
-13 20 -5 35 5 11 10 33 10 50 0 46 -30 61 -122 61 l-78 0 0 -130z m145 55 c0
-29 -2 -30 -47 -33 l-48 -3 0 36 0 36 48 -3 c45 -3 47 -4 47 -33z m13 -104 c5
-32 -21 -51 -70 -51 -38 0 -38 0 -38 41 l0 40 53 -3 c47 -3 52 -6 55 -27z"/>
        <path d="M904 555 c-4 -9 -2 -21 4 -27 15 -15 44 -1 40 19 -4 23 -36 29 -44 8z"/>
        <path d="M1043 540 c-40 -24 -53 -48 -53 -100 0 -34 6 -48 34 -76 29 -29 41
-34 79 -34 47 0 87 23 108 61 10 20 10 20 -15 4 -30 -20 -61 -13 -82 20 -24
36 -1 79 45 83 20 2 38 -2 43 -10 7 -9 8 -8 6 7 -4 27 -64 65 -102 65 -17 0
-45 -9 -63 -20z"/>
        <path d="M760 515 c0 -16 -6 -25 -15 -25 -8 0 -15 -9 -15 -20 0 -11 7 -20 15
-20 12 0 15 -13 15 -58 0 -69 20 -96 67 -90 37 4 46 38 10 38 -27 0 -37 21
-37 78 0 28 3 32 25 32 18 0 25 5 25 20 0 15 -7 20 -25 20 -20 0 -25 5 -25 25
0 18 -5 25 -20 25 -15 0 -20 -7 -20 -25z"/>
        <path d="M447 483 c-4 -3 -7 -13 -7 -22 0 -13 11 -16 52 -16 34 0 53 -4 56
-14 3 -10 -3 -12 -25 -7 -32 7 -83 -8 -95 -27 -15 -24 -8 -66 14 -81 24 -17
83 -22 92 -8 3 5 19 7 36 4 l30 -4 0 66 c0 58 -3 70 -25 91 -19 20 -34 25 -73
25 -27 0 -52 -3 -55 -7z m100 -109 c8 -22 -20 -42 -52 -36 -24 4 -34 30 -18
45 13 14 64 7 70 -9z"/>
        <path d="M900 400 c0 -89 0 -90 25 -90 25 0 25 1 25 90 0 89 0 90 -25 90 -25
0 -25 -1 -25 -90z"/>
        <path d="M1577 479 c-24 -14 -49 -72 -41 -96 15 -47 30 -64 66 -75 59 -17 115
3 134 49 31 73 -12 133 -95 133 -25 0 -54 -5 -64 -11z m107 -45 c20 -20 20
-44 0 -72 -39 -57 -127 6 -90 64 19 28 66 33 90 8z"/>
        <path d="M2094 478 c-39 -18 -56 -86 -34 -129 29 -53 170 -70 170 -20 0 13 -9
15 -50 13 -48 -4 -80 8 -80 29 0 5 34 9 75 9 74 0 75 0 75 26 0 41 -50 84 -97
83 -21 0 -48 -5 -59 -11z m104 -50 c3 -15 -5 -18 -53 -18 -53 0 -55 1 -45 21
9 16 19 20 53 17 30 -2 43 -8 45 -20z"/>
    </g>
</svg>
